<?xml version="1.0" encoding="UTF-8"?>
<!-- Generator: Adobe Illustrator 27.9.0, SVG Export Plug-In . SVG Version: 6.00 Build 0)  -->
<svg width="337.6" height="46.4" version="1.1" viewBox="0 0 337.6 46.4" xml:space="preserve" xmlns="http://www.w3.org/2000/svg">
<style type="text/css">
	.st0{fill:#5F249F;}
</style>
<g transform="translate(-24,-155.5)">
	<path d="m33.5 175.8v24.8h-9.5v-44.5h0.2l29.2 25.5v-24.8h9.6v44.5h-0.2zm37.1 2.9c0-13.3 10.1-22.7 24.3-22.7 4.5 0 8.1 0.8 11.1 2.1v8.9c-2.9-1.5-6.7-2.4-11.1-2.4-9.3 0-14.7 5.6-14.7 14s5.4 14 14.7 14c4.4 0 8.2-0.8 11.1-2.4v8.9c-3 1.4-6.6 2.2-11.1 2.2-14.2 0.1-24.3-9.3-24.3-22.6zm44.4-21.9h14.7c11.1 0 17.3 6 17.3 15 0 5.7-2.7 10.3-8.7 12.5l10.1 16.3h-10.8l-13.1-21.9h5.4c4.7 0 7.5-2.8 7.5-6.9s-2.9-6.9-7.5-6.9h-5.3v35.7h-9.6zm46.4 0h10.5l11.3 24.4 11.2-24.4h10.5l-21.6 44.6h-0.2zm109 26.6-15.9-26.6h10.8l9.8 17.1 9.8-17.1h10.8l-15.9 26.6v17.2h-9.5zm32.1-26.6h9.5v43.8h-9.5zm37.7 28.5-10 15.3h-11.3l15.5-22.4-14.8-21.4h11.3l9.4 14.3 9.4-14.3h11.3l-14.9 21.4 15.5 22.5h-11.3z"/>
	<path class="st0" d="m224.1 160.8c0 3-2.5 5.3-5.5 5.3s-5.5-2.4-5.5-5.3 2.5-5.3 5.5-5.3 5.5 2.4 5.5 5.3zm-21.7 10.5c0 3 2.5 5.3 5.5 5.3s5.5-2.4 5.5-5.3-2.5-5.3-5.5-5.3c-3.1 0-5.5 2.3-5.5 5.3zm0 14.8c0 3 2.5 5.3 5.5 5.3s5.5-2.4 5.5-5.3-2.5-5.3-5.5-5.3c-3.1-0.1-5.5 2.3-5.5 5.3zm16.2 15.8c3 0 5.5-2.4 5.5-5.3s-2.5-5.3-5.5-5.3-5.5 2.4-5.5 5.3 2.4 5.3 5.5 5.3zm15.2 0c3 0 5.5-2.4 5.5-5.3s-2.5-5.3-5.5-5.3-5.5 2.4-5.5 5.3 2.4 5.3 5.5 5.3zm16.2-15.8c0-3-2.5-5.3-5.5-5.3s-5.5 2.4-5.5 5.3 2.5 5.3 5.5 5.3c3.1 0 5.5-2.4 5.5-5.3zm0-14.8c0-3-2.5-5.3-5.5-5.3s-5.5 2.4-5.5 5.3 2.5 5.3 5.5 5.3c3.1 0 5.5-2.4 5.5-5.3zm-16.2-15.8c-3 0-5.5 2.4-5.5 5.3s2.5 5.3 5.5 5.3 5.5-2.4 5.5-5.3-2.5-5.3-5.5-5.3z"/>
</g>
</svg>
